<svg aria-hidden="true" focusable="false" id="Layer_1" data-name="Layer 1" xmlns="http://www.w3.org/2000/svg" viewBox="0 0 1038.84 253.26"><defs><style>.cls-1 {
        fill: #ffd239;
    }
    .cls-2 {
        fill: #1d1d1b;
    }
</style></defs><title>Valteri logo</title><path class="cls-1" d="M117.16,449.32A126.63,126.63,0,1,1,243.78,575.94,126.62,126.62,0,0,1,117.16,449.32M286.63,331.88c-27.43,11.46-31.15,57.3-31.15,70.15,0,15.87,7.52,62.05,48.07,68.21a117.08,117.08,0,0,1-17.65,1.33c-38,0-70.38-18-83-43.23-.1,1.7-.16,3.42-.16,5.14,0,43,22.09,79.27,67,79.27,41.85,0,67-36.25,67-79.27,0-36.49-20.23-85.17-50.08-101.6" transform="translate(-117.16 -322.69)"/><path class="cls-2" d="M476.16,500.53h-.46L434.55,381.86c-2.52-7.09-4.35-13-12.35-13-5.49,0-8.92,4.12-8.92,8.23a23.42,23.42,0,0,0,1.37,7.78L464.27,523.4c2.29,6.63,4.8,11,11.66,11s9.38-4.34,11.66-11l49.62-138.56a23.17,23.17,0,0,0,1.37-7.78c0-4.11-3.43-8.23-8.91-8.23-8,0-9.84,5.94-12.35,13Z" transform="translate(-117.16 -322.69)"/><path class="cls-2" d="M639.86,480.18H576.75l31.32-88h.46Zm-69.28,17.38H646l10.52,29.27c1.6,4.34,4.34,7.54,9.83,7.54,5.26,0,9.6-3.2,9.6-8.46,0-2.74-2.06-8-2.74-10L622.71,381.18c-2.52-7.09-6.64-12.35-14.41-12.35s-11.89,5.26-14.4,12.35L543.36,515.86c-.68,2-2.74,7.31-2.74,10,0,5.26,4.35,8.46,9.6,8.46,5.49,0,8.23-3.2,9.84-7.54Z" transform="translate(-117.16 -322.69)"/><path class="cls-2" d="M723.06,379.57c0-6.62-3.89-10.74-10.06-10.74s-10.06,4.12-10.06,10.74V522c0,6.17,3.2,11,10.74,11h52.37c5.71,0,9.83-3,9.83-9.37s-4.12-9.38-9.83-9.38h-43Z" transform="translate(-117.16 -322.69)"/><path class="cls-2" d="M805.12,523.63c0,6.63,3.89,10.74,10.06,10.74s10.06-4.11,10.06-10.74V389h30.41c5.71,0,9.83-3,9.83-9.38s-4.12-9.37-9.83-9.37H774.71c-5.72,0-9.84,3-9.84,9.37S769,389,774.71,389h30.41Z" transform="translate(-117.16 -322.69)"/><path class="cls-2" d="M910.73,461h44.13c5.72,0,9.84-3,9.84-9.38s-4.12-9.37-9.84-9.37H910.73V389h48.48c5.71,0,9.83-3,9.83-9.38s-4.12-9.37-9.83-9.37H901.36c-7.55,0-10.75,4.8-10.75,11V522c0,6.17,3.2,11,10.75,11h57.85c5.71,0,9.83-3,9.83-9.37s-4.12-9.37-9.83-9.37H910.73Z" transform="translate(-117.16 -322.69)"/><path class="cls-2" d="M1023.66,387.58h27c18.74,0,30.63,12.8,30.63,27.89,0,21-9.14,30-30.18,30h-27.44Zm0,74.08,62.2,68.14c2.28,2.51,5,4.57,9.14,4.57,5,0,9.15-3.42,9.15-7.77,0-3.66-1.14-6.17-3.89-9.14l-51.9-56.94,8.69-.23c24.23-.92,44.35-13.26,44.35-46.19,0-26.52-24.23-43.9-49.84-43.9h-37.27c-7.55,0-10.75,4.8-10.75,11V523.63c0,6.63,3.89,10.74,10.06,10.74s10.06-4.11,10.06-10.74Z" transform="translate(-117.16 -322.69)"/><path class="cls-2" d="M1156,379.57c0-6.62-3.89-10.74-10.06-10.74s-10.06,4.12-10.06,10.74V523.63c0,6.63,3.89,10.74,10.06,10.74s10.06-4.11,10.06-10.74Z" transform="translate(-117.16 -322.69)"/></svg>
